<?xml version="1.0" encoding="UTF-8" standalone="no"?>
<svg
   height="16"
   viewBox="0 0 16 16"
   width="16"
   version="1.1"
   id="svg1"
   xmlns="http://www.w3.org/2000/svg"
   xmlns:svg="http://www.w3.org/2000/svg">
  <defs
     id="defs1">
    <clipPath
       clipPathUnits="userSpaceOnUse"
       id="clipPath">
      <rect
         style="display:none;fill:#ffffff;stroke-width:0.597"
         id="rect2"
         width="11.470665"
         height="11.997792"
         x="8.9991398"
         y="7.8614745"
         d="M 8.9991398,7.8614745 H 20.469805 V 19.859267 H 8.9991398 Z" />
      <path
         id="lpe_path-effect2"
         style="fill:#ffffff;stroke-width:0.597"
         class="powerclip"
         d="M -5,-3 H 21 V 19 H -5 Z M 8.9991398,7.8614745 V 19.859267 H 20.469805 V 7.8614745 Z" />
    </clipPath>
  </defs>
  <path
     d="M 2.5,2 C 1.132812,2 0,3.132812 0,4.5 v 7 C 0,12.867188 1.132812,14 2.5,14 h 11 c 1.367188,0 2.5,-1.132812 2.5,-2.5 v -7 C 16,3.132812 14.867188,2 13.5,2 Z m 0,2 h 1 C 3.777344,4 4,4.222656 4,4.5 v 1 C 4,5.777344 3.777344,6 3.5,6 h -1 C 2.222656,6 2,5.777344 2,5.5 v -1 C 2,4.257812 2.171875,4.054688 2.398438,4.011719 2.429688,4.003906 2.464844,4 2.5,4 Z m 3,0 h 1 C 6.777344,4 7,4.222656 7,4.5 v 1 C 7,5.777344 6.777344,6 6.5,6 h -1 C 5.222656,6 5,5.777344 5,5.5 v -1 C 5,4.222656 5.222656,4 5.5,4 Z m 3,0 h 1 C 9.777344,4 10,4.222656 10,4.5 v 1 C 10,5.777344 9.777344,6 9.5,6 h -1 C 8.222656,6 8,5.777344 8,5.5 v -1 C 8,4.222656 8.222656,4 8.5,4 Z m 3,0 h 1 C 12.777344,4 13,4.222656 13,4.5 v 1 C 13,5.777344 12.777344,6 12.5,6 h -1 C 11.222656,6 11,5.777344 11,5.5 v -1 C 11,4.222656 11.222656,4 11.5,4 Z m -8,3 h 1 C 4.777344,7 5,7.222656 5,7.5 v 1 C 5,8.777344 4.777344,9 4.5,9 h -1 C 3.222656,9 3,8.777344 3,8.5 v -1 C 3,7.222656 3.222656,7 3.5,7 Z m 3,0 h 1 C 7.777344,7 8,7.222656 8,7.5 v 1 C 8,8.777344 7.777344,9 7.5,9 h -1 C 6.222656,9 6,8.777344 6,8.5 v -1 C 6,7.222656 6.222656,7 6.5,7 Z m 3,0 h 1 C 10.777344,7 11,7.222656 11,7.5 v 1 C 11,8.777344 10.777344,9 10.5,9 h -1 C 9.222656,9 9,8.777344 9,8.5 v -1 C 9,7.222656 9.222656,7 9.5,7 Z m 3,0 h 1 C 13.777344,7 14,7.222656 14,7.5 v 1 C 14,8.777344 13.777344,9 13.5,9 h -1 C 12.222656,9 12,8.777344 12,8.5 v -1 C 12,7.222656 12.222656,7 12.5,7 Z m -10,3 h 1 C 3.777344,10 4,10.222656 4,10.5 v 1 C 4,11.777344 3.777344,12 3.5,12 h -1 C 2.222656,12 2,11.777344 2,11.5 v -1 C 2,10.222656 2.222656,10 2.5,10 Z m 3,0 h 4 c 0.277344,0 0.5,0.222656 0.5,0.5 v 1 C 10,11.777344 9.777344,12 9.5,12 h -4 C 5.222656,12 5,11.777344 5,11.5 v -1 C 5,10.222656 5.222656,10 5.5,10 Z m 6,0 h 1 c 0.277344,0 0.5,0.222656 0.5,0.5 v 1 c 0,0.277344 -0.222656,0.5 -0.5,0.5 h -1 C 11.222656,12 11,11.777344 11,11.5 v -1 C 11,10.222656 11.222656,10 11.5,10 Z m 0,0"
     fill="#2e3436"
     id="path1"
     clip-path="url(#clipPath)" />
  <g
     fill="#2e3436"
     id="g2"
     transform="matrix(0.55696615,0,0,0.55696615,8.1879475,7.515625)">
    <path
       class="warning"
       d="m 3,1 h 3 c 0.550781,0 1,0.449219 1,1 v 12 c 0,0.550781 -0.449219,1 -1,1 H 3 C 2.449219,15 2,14.550781 2,14 V 2 C 2,1.449219 2.449219,1 3,1 Z m 0,0"
       id="path1-2" />
    <path
       class="warning"
       d="m 10,1 h 3 c 0.550781,0 1,0.449219 1,1 v 12 c 0,0.550781 -0.449219,1 -1,1 H 10 C 9.449219,15 9,14.550781 9,14 V 2 C 9,1.449219 9.449219,1 10,1 Z m 0,0"
       id="path2" />
  </g>
</svg>
